<?xml version="1.0" standalone="no"?>
<!DOCTYPE svg PUBLIC "-//W3C//DTD SVG 20010904//EN"
 "http://www.w3.org/TR/2001/REC-SVG-20010904/DTD/svg10.dtd">
<svg version="1.0" xmlns="http://www.w3.org/2000/svg"
 width="435.000000pt" height="520.000000pt" viewBox="0 0 435.000000 520.000000"
 preserveAspectRatio="xMidYMid meet">

<g transform="translate(0.000000,520.000000) scale(0.100000,-0.100000)"
fill="#000000" stroke="none">
<path d="M2655 5166 c-94 -19 -140 -36 -264 -102 -58 -31 -151 -81 -206 -110
-141 -75 -279 -127 -485 -184 -313 -87 -353 -105 -548 -248 -65 -48 -188 -125
-274 -171 -249 -134 -424 -271 -556 -436 -120 -148 -164 -253 -244 -574 -47
-188 -52 -216 -52 -326 l-1 -120 54 -140 c29 -77 64 -189 77 -250 80 -365 57
-305 296 -760 116 -221 159 -294 256 -435 217 -316 383 -453 482 -400 38 20
51 119 29 234 -17 91 -43 142 -106 199 -147 135 -203 191 -304 305 -184 209
-237 307 -247 453 -8 139 41 244 139 293 141 70 368 1 515 -156 107 -115 147
-212 280 -680 132 -468 186 -624 285 -821 151 -303 373 -497 662 -581 75 -22
265 -51 274 -42 2 2 -20 17 -49 34 -114 64 -242 171 -321 267 -32 38 -19 29
55 -40 163 -152 345 -250 525 -281 48 -9 132 -26 188 -39 157 -36 242 -48 355
-48 328 1 605 121 687 299 29 65 31 98 19 334 -7 129 -5 195 14 395 26 278 24
406 -7 476 -39 89 -121 118 -216 79 -53 -22 -54 -22 -113 -5 -135 41 -206 37
-456 -21 -213 -49 -338 -61 -485 -46 -312 33 -693 159 -916 305 -211 138 -292
290 -267 505 4 40 9 75 11 77 8 7 537 135 664 161 223 44 249 31 309 -155 47
-147 77 -204 142 -268 151 -151 397 -161 580 -23 68 51 132 149 210 323 36 78
71 148 78 156 23 22 43 6 61 -51 46 -139 189 -354 279 -420 101 -73 190 6 248
220 17 62 21 108 22 237 1 153 0 163 -24 210 -38 74 -89 98 -195 92 -44 -3
-127 -17 -185 -33 -154 -40 -228 -38 -405 16 -124 37 -155 42 -271 47 -154 6
-261 -4 -509 -52 -99 -19 -313 -55 -475 -80 -162 -25 -330 -51 -372 -59 -69
-12 -78 -11 -78 2 0 8 13 65 30 126 16 61 45 188 65 281 19 94 47 213 61 265
75 286 254 475 510 540 75 19 76 20 24 14 -202 -20 -447 -117 -618 -246 -45
-34 -58 -40 -38 -20 41 44 169 134 256 180 104 56 215 99 339 130 100 25 119
27 346 27 247 0 292 -5 425 -47 78 -24 130 -53 232 -129 42 -31 98 -65 123
-75 45 -17 47 -17 73 3 66 49 103 189 82 310 -25 145 -78 237 -332 574 -222
296 -296 381 -376 435 -103 71 -233 96 -367 70z m1438 -3967 c20 -5 37 -16 37
-24 0 -40 -143 -104 -280 -126 -217 -34 -565 44 -444 100 88 40 591 77 687 50z"/>
<path d="M741 2303 c-116 -61 -112 -235 10 -423 44 -69 132 -160 154 -160 15
0 17 -9 -34 148 -12 35 -21 88 -21 118 0 45 5 59 28 84 15 16 50 38 77 47 59
22 68 45 35 98 -53 85 -174 128 -249 88z"/>
</g>
</svg>
